<svg width="138" height="68" viewBox="0 0 138 68" fill="none" xmlns="http://www.w3.org/2000/svg">
<rect x="16.8569" y="14" width="68" height="24" rx="4" fill="#F8FAFC"/>
<circle cx="28.8569" cy="26" r="4" fill="#475569"/>
<path d="M41.9489 31V21.13H45.5329C46.6623 21.13 47.6143 21.326 48.3889 21.718C49.1729 22.1007 49.7656 22.6607 50.1669 23.398C50.5683 24.126 50.7689 25.0127 50.7689 26.058C50.7689 27.094 50.5683 27.9807 50.1669 28.718C49.7656 29.4553 49.1729 30.02 48.3889 30.412C47.6143 30.804 46.6623 31 45.5329 31H41.9489ZM43.7549 29.502H45.4209C46.6156 29.502 47.5023 29.2173 48.0809 28.648C48.6596 28.0787 48.9489 27.2153 48.9489 26.058C48.9489 24.8913 48.6596 24.028 48.0809 23.468C47.5023 22.8987 46.6156 22.614 45.4209 22.614H43.7549V29.502ZM52.559 31V25.736C52.559 25.4373 52.5497 25.134 52.531 24.826C52.5217 24.518 52.4983 24.2193 52.461 23.93H54.155L54.351 25.862H54.071C54.1643 25.3953 54.3183 25.008 54.533 24.7C54.757 24.392 55.0277 24.1633 55.345 24.014C55.6623 23.8647 56.0077 23.79 56.381 23.79C56.549 23.79 56.6843 23.7993 56.787 23.818C56.8897 23.8273 56.9923 23.8507 57.095 23.888L57.081 25.428C56.9037 25.3533 56.7497 25.3067 56.619 25.288C56.4977 25.2693 56.3437 25.26 56.157 25.26C55.7557 25.26 55.415 25.344 55.135 25.512C54.8643 25.68 54.659 25.9133 54.519 26.212C54.3883 26.5107 54.323 26.8513 54.323 27.234V31H52.559ZM60.8307 31.14C60.2147 31.14 59.6734 30.9953 59.2067 30.706C58.7401 30.4073 58.3761 29.9827 58.1147 29.432C57.8534 28.8813 57.7227 28.2233 57.7227 27.458C57.7227 26.6927 57.8534 26.0393 58.1147 25.498C58.3761 24.9473 58.7401 24.5273 59.2067 24.238C59.6734 23.9393 60.2147 23.79 60.8307 23.79C61.4281 23.79 61.9507 23.9393 62.3987 24.238C62.8561 24.5273 63.1594 24.9193 63.3087 25.414H63.1547L63.3087 23.93H64.9887C64.9607 24.2193 64.9327 24.5133 64.9047 24.812C64.8861 25.1107 64.8767 25.4047 64.8767 25.694V31H63.1407L63.1267 29.544H63.2947C63.1454 30.0293 62.8421 30.4167 62.3847 30.706C61.9274 30.9953 61.4094 31.14 60.8307 31.14ZM61.3207 29.796C61.8714 29.796 62.3147 29.6047 62.6507 29.222C62.9867 28.83 63.1547 28.242 63.1547 27.458C63.1547 26.674 62.9867 26.0907 62.6507 25.708C62.3147 25.3253 61.8714 25.134 61.3207 25.134C60.7701 25.134 60.3267 25.3253 59.9907 25.708C59.6547 26.0907 59.4867 26.674 59.4867 27.458C59.4867 28.242 59.6501 28.83 59.9767 29.222C60.3127 29.6047 60.7607 29.796 61.3207 29.796ZM67.3584 31V25.246H66.0004V23.93H67.8484L67.3584 24.378V23.3C67.3584 22.4227 67.5824 21.76 68.0304 21.312C68.4877 20.864 69.155 20.64 70.0324 20.64C70.2377 20.64 70.4524 20.654 70.6764 20.682C70.9097 20.71 71.1104 20.7613 71.2784 20.836V22.208C71.157 22.1613 71.0124 22.124 70.8444 22.096C70.6764 22.068 70.513 22.054 70.3544 22.054C70.1117 22.054 69.8924 22.1007 69.6964 22.194C69.5097 22.2873 69.3604 22.432 69.2484 22.628C69.1457 22.8147 69.0944 23.0667 69.0944 23.384V24.238L68.8424 23.93H70.9564V25.246H69.1084V31H67.3584ZM74.7779 31.14C73.9379 31.14 73.3032 30.9207 72.8739 30.482C72.4445 30.0433 72.2299 29.3853 72.2299 28.508V25.246H70.8719V23.93H72.2299V22.124L73.9799 21.676V23.93H75.8699V25.246H73.9799V28.396C73.9799 28.8813 74.0732 29.222 74.2599 29.418C74.4465 29.614 74.7032 29.712 75.0299 29.712C75.2072 29.712 75.3565 29.698 75.4779 29.67C75.6085 29.642 75.7345 29.6047 75.8559 29.558V30.944C75.6972 31.0093 75.5199 31.056 75.3239 31.084C75.1372 31.1213 74.9552 31.14 74.7779 31.14Z" fill="#475569"/>
</svg>
