<svg width="43" height="12" viewBox="0 0 43 12" fill="none" xmlns="http://www.w3.org/2000/svg">
<path d="M0.948934 11V1.13H2.75493V11H0.948934ZM7.40745 11.14C6.80078 11.14 6.24078 11.07 5.72745 10.93C5.22345 10.7807 4.79878 10.5753 4.45345 10.314L4.94345 9.138C5.29812 9.38067 5.69012 9.56733 6.11945 9.698C6.54878 9.82867 6.98278 9.894 7.42145 9.894C7.88812 9.894 8.23345 9.81467 8.45745 9.656C8.69078 9.49733 8.80745 9.28267 8.80745 9.012C8.80745 8.79733 8.73278 8.62933 8.58345 8.508C8.44345 8.37733 8.21478 8.27933 7.89745 8.214L6.49745 7.948C5.90012 7.81733 5.44278 7.59333 5.12545 7.276C4.81745 6.95867 4.66345 6.54333 4.66345 6.03C4.66345 5.59133 4.78012 5.204 5.01345 4.868C5.25612 4.532 5.59678 4.27067 6.03545 4.084C6.48345 3.888 7.00612 3.79 7.60345 3.79C8.12612 3.79 8.61612 3.86 9.07345 4C9.54012 4.14 9.93212 4.35 10.2494 4.63L9.74545 5.764C9.45612 5.53067 9.12478 5.34867 8.75145 5.218C8.37812 5.08733 8.01412 5.022 7.65945 5.022C7.17412 5.022 6.81945 5.11067 6.59545 5.288C6.37145 5.456 6.25945 5.67533 6.25945 5.946C6.25945 6.15133 6.32478 6.324 6.45545 6.464C6.59545 6.59467 6.81012 6.69267 7.09945 6.758L8.49945 7.024C9.12478 7.14533 9.59612 7.36 9.91345 7.668C10.2401 7.96667 10.4034 8.37733 10.4034 8.9C10.4034 9.36667 10.2774 9.768 10.0254 10.104C9.77345 10.44 9.42345 10.6967 8.97545 10.874C8.52745 11.0513 8.00478 11.14 7.40745 11.14ZM14.5211 11.14C13.9145 11.14 13.3545 11.07 12.8411 10.93C12.3371 10.7807 11.9125 10.5753 11.5671 10.314L12.0571 9.138C12.4118 9.38067 12.8038 9.56733 13.2331 9.698C13.6625 9.82867 14.0965 9.894 14.5351 9.894C15.0018 9.894 15.3471 9.81467 15.5711 9.656C15.8045 9.49733 15.9211 9.28267 15.9211 9.012C15.9211 8.79733 15.8465 8.62933 15.6971 8.508C15.5571 8.37733 15.3285 8.27933 15.0111 8.214L13.6111 7.948C13.0138 7.81733 12.5565 7.59333 12.2391 7.276C11.9311 6.95867 11.7771 6.54333 11.7771 6.03C11.7771 5.59133 11.8938 5.204 12.1271 4.868C12.3698 4.532 12.7105 4.27067 13.1491 4.084C13.5971 3.888 14.1198 3.79 14.7171 3.79C15.2398 3.79 15.7298 3.86 16.1871 4C16.6538 4.14 17.0458 4.35 17.3631 4.63L16.8591 5.764C16.5698 5.53067 16.2385 5.34867 15.8651 5.218C15.4918 5.08733 15.1278 5.022 14.7731 5.022C14.2878 5.022 13.9331 5.11067 13.7091 5.288C13.4851 5.456 13.3731 5.67533 13.3731 5.946C13.3731 6.15133 13.4385 6.324 13.5691 6.464C13.7091 6.59467 13.9238 6.69267 14.2131 6.758L15.6131 7.024C16.2385 7.14533 16.7098 7.36 17.0271 7.668C17.3538 7.96667 17.5171 8.37733 17.5171 8.9C17.5171 9.36667 17.3911 9.768 17.1391 10.104C16.8871 10.44 16.5371 10.6967 16.0891 10.874C15.6411 11.0513 15.1185 11.14 14.5211 11.14ZM21.6628 11.14C20.7948 11.14 20.1461 10.902 19.7168 10.426C19.2875 9.95 19.0728 9.222 19.0728 8.242V3.93H20.8228V8.228C20.8228 8.75067 20.9301 9.138 21.1448 9.39C21.3595 9.63267 21.6861 9.754 22.1248 9.754C22.6195 9.754 23.0208 9.586 23.3288 9.25C23.6461 8.914 23.8048 8.47067 23.8048 7.92V3.93H25.5548V11H23.8468V9.558H24.0428C23.8375 10.062 23.5248 10.454 23.1048 10.734C22.6941 11.0047 22.2135 11.14 21.6628 11.14ZM30.9706 11.14C29.7853 11.14 28.8566 10.8133 28.1846 10.16C27.5126 9.50667 27.1766 8.61067 27.1766 7.472C27.1766 6.73467 27.3213 6.09067 27.6106 5.54C27.9 4.98933 28.3013 4.56 28.8146 4.252C29.3373 3.944 29.944 3.79 30.6346 3.79C31.316 3.79 31.8853 3.93467 32.3426 4.224C32.8 4.51333 33.1453 4.91933 33.3786 5.442C33.6213 5.96467 33.7426 6.576 33.7426 7.276V7.738H28.5906V6.814H32.4966L32.2586 7.01C32.2586 6.35667 32.1186 5.85733 31.8386 5.512C31.568 5.16667 31.1713 4.994 30.6486 4.994C30.07 4.994 29.622 5.19933 29.3046 5.61C28.9966 6.02067 28.8426 6.59467 28.8426 7.332V7.514C28.8426 8.27933 29.0293 8.85333 29.4026 9.236C29.7853 9.60933 30.322 9.796 31.0126 9.796C31.414 9.796 31.7873 9.74467 32.1326 9.642C32.4873 9.53 32.8233 9.35267 33.1406 9.11L33.6586 10.286C33.3226 10.5567 32.9213 10.7667 32.4546 10.916C31.988 11.0653 31.4933 11.14 30.9706 11.14ZM38.0686 11.14C37.4526 11.14 36.9066 10.9953 36.4306 10.706C35.9639 10.4073 35.5999 9.98267 35.3386 9.432C35.0772 8.88133 34.9466 8.22333 34.9466 7.458C34.9466 6.69267 35.0772 6.03933 35.3386 5.498C35.5999 4.94733 35.9639 4.52733 36.4306 4.238C36.9066 3.93933 37.4526 3.79 38.0686 3.79C38.6566 3.79 39.1746 3.93467 39.6226 4.224C40.0799 4.504 40.3832 4.88667 40.5326 5.372H40.3506V0.695999H42.1006V11H40.3786V9.502H40.5466C40.3972 10.006 40.0939 10.4073 39.6366 10.706C39.1886 10.9953 38.6659 11.14 38.0686 11.14ZM38.5586 9.796C39.1092 9.796 39.5526 9.60467 39.8886 9.222C40.2246 8.83 40.3926 8.242 40.3926 7.458C40.3926 6.674 40.2246 6.09067 39.8886 5.708C39.5526 5.32533 39.1092 5.134 38.5586 5.134C38.0079 5.134 37.5599 5.32533 37.2146 5.708C36.8786 6.09067 36.7106 6.674 36.7106 7.458C36.7106 8.242 36.8786 8.83 37.2146 9.222C37.5599 9.60467 38.0079 9.796 38.5586 9.796Z" fill="#2563EB"/>
</svg>
