<svg width="18" height="18" viewBox="0 0 18 18" fill="none" xmlns="http://www.w3.org/2000/svg">
<path d="M5.625 3C4.1775 3 3 4.1775 3 5.625C3 7.0725 4.1775 8.25 5.625 8.25C7.0725 8.25 8.25 7.0725 8.25 5.625C8.25 4.1775 7.0725 3 5.625 3ZM5.625 6.75C5.0025 6.75 4.5 6.2475 4.5 5.625C4.5 5.0025 5.0025 4.5 5.625 4.5C6.2475 4.5 6.75 5.0025 6.75 5.625C6.75 6.2475 6.2475 6.75 5.625 6.75ZM12.375 9.75C10.9275 9.75 9.75 10.9275 9.75 12.375C9.75 13.8225 10.9275 15 12.375 15C13.8225 15 15 13.8225 15 12.375C15 10.9275 13.8225 9.75 12.375 9.75ZM12.375 13.5C11.7525 13.5 11.25 12.9975 11.25 12.375C11.25 11.7525 11.7525 11.25 12.375 11.25C12.9975 11.25 13.5 11.7525 13.5 12.375C13.5 12.9975 12.9975 13.5 12.375 13.5ZM4.0575 15L3 13.9425L13.9425 3L15 4.0575L4.0575 15Z" fill="black"/>
</svg>
