<svg width="69" height="24" viewBox="0 0 69 24" fill="none" xmlns="http://www.w3.org/2000/svg">
<rect x="0.856934" width="68" height="24" rx="4" fill="#F8FAFC"/>
<circle cx="12.8569" cy="12" r="4" fill="#475569"/>
<path d="M25.9489 17V7.13H29.5329C30.6623 7.13 31.6143 7.326 32.3889 7.718C33.1729 8.10067 33.7656 8.66067 34.1669 9.398C34.5683 10.126 34.7689 11.0127 34.7689 12.058C34.7689 13.094 34.5683 13.9807 34.1669 14.718C33.7656 15.4553 33.1729 16.02 32.3889 16.412C31.6143 16.804 30.6623 17 29.5329 17H25.9489ZM27.7549 15.502H29.4209C30.6156 15.502 31.5023 15.2173 32.0809 14.648C32.6596 14.0787 32.9489 13.2153 32.9489 12.058C32.9489 10.8913 32.6596 10.028 32.0809 9.468C31.5023 8.89867 30.6156 8.614 29.4209 8.614H27.7549V15.502ZM36.559 17V11.736C36.559 11.4373 36.5497 11.134 36.531 10.826C36.5217 10.518 36.4983 10.2193 36.461 9.93H38.155L38.351 11.862H38.071C38.1643 11.3953 38.3183 11.008 38.533 10.7C38.757 10.392 39.0277 10.1633 39.345 10.014C39.6623 9.86467 40.0077 9.79 40.381 9.79C40.549 9.79 40.6843 9.79933 40.787 9.818C40.8897 9.82733 40.9923 9.85067 41.095 9.888L41.081 11.428C40.9037 11.3533 40.7497 11.3067 40.619 11.288C40.4977 11.2693 40.3437 11.26 40.157 11.26C39.7557 11.26 39.415 11.344 39.135 11.512C38.8643 11.68 38.659 11.9133 38.519 12.212C38.3883 12.5107 38.323 12.8513 38.323 13.234V17H36.559ZM44.8307 17.14C44.2147 17.14 43.6734 16.9953 43.2067 16.706C42.7401 16.4073 42.3761 15.9827 42.1147 15.432C41.8534 14.8813 41.7227 14.2233 41.7227 13.458C41.7227 12.6927 41.8534 12.0393 42.1147 11.498C42.3761 10.9473 42.7401 10.5273 43.2067 10.238C43.6734 9.93933 44.2147 9.79 44.8307 9.79C45.4281 9.79 45.9507 9.93933 46.3987 10.238C46.8561 10.5273 47.1594 10.9193 47.3087 11.414H47.1547L47.3087 9.93H48.9887C48.9607 10.2193 48.9327 10.5133 48.9047 10.812C48.8861 11.1107 48.8767 11.4047 48.8767 11.694V17H47.1407L47.1267 15.544H47.2947C47.1454 16.0293 46.8421 16.4167 46.3847 16.706C45.9274 16.9953 45.4094 17.14 44.8307 17.14ZM45.3207 15.796C45.8714 15.796 46.3147 15.6047 46.6507 15.222C46.9867 14.83 47.1547 14.242 47.1547 13.458C47.1547 12.674 46.9867 12.0907 46.6507 11.708C46.3147 11.3253 45.8714 11.134 45.3207 11.134C44.7701 11.134 44.3267 11.3253 43.9907 11.708C43.6547 12.0907 43.4867 12.674 43.4867 13.458C43.4867 14.242 43.6501 14.83 43.9767 15.222C44.3127 15.6047 44.7607 15.796 45.3207 15.796ZM51.3584 17V11.246H50.0004V9.93H51.8484L51.3584 10.378V9.3C51.3584 8.42267 51.5824 7.76 52.0304 7.312C52.4877 6.864 53.155 6.64 54.0324 6.64C54.2377 6.64 54.4524 6.654 54.6764 6.682C54.9097 6.71 55.1104 6.76133 55.2784 6.836V8.208C55.157 8.16133 55.0124 8.124 54.8444 8.096C54.6764 8.068 54.513 8.054 54.3544 8.054C54.1117 8.054 53.8924 8.10067 53.6964 8.194C53.5097 8.28733 53.3604 8.432 53.2484 8.628C53.1457 8.81467 53.0944 9.06667 53.0944 9.384V10.238L52.8424 9.93H54.9564V11.246H53.1084V17H51.3584ZM58.7779 17.14C57.9379 17.14 57.3032 16.9207 56.8739 16.482C56.4445 16.0433 56.2299 15.3853 56.2299 14.508V11.246H54.8719V9.93H56.2299V8.124L57.9799 7.676V9.93H59.8699V11.246H57.9799V14.396C57.9799 14.8813 58.0732 15.222 58.2599 15.418C58.4465 15.614 58.7032 15.712 59.0299 15.712C59.2072 15.712 59.3565 15.698 59.4779 15.67C59.6085 15.642 59.7345 15.6047 59.8559 15.558V16.944C59.6972 17.0093 59.5199 17.056 59.3239 17.084C59.1372 17.1213 58.9552 17.14 58.7779 17.14Z" fill="#475569"/>
</svg>
