<svg width="77" height="24" viewBox="0 0 77 24" fill="none" xmlns="http://www.w3.org/2000/svg">
<rect x="0.856934" width="76" height="24" rx="4" fill="#EFF6FF"/>
<circle cx="12.8569" cy="12" r="4" fill="#2563EB"/>
<path d="M25.9489 17V7.13H27.7549V17H25.9489ZM32.4074 17.14C31.8008 17.14 31.2408 17.07 30.7274 16.93C30.2234 16.7807 29.7988 16.5753 29.4534 16.314L29.9434 15.138C30.2981 15.3807 30.6901 15.5673 31.1194 15.698C31.5488 15.8287 31.9828 15.894 32.4214 15.894C32.8881 15.894 33.2334 15.8147 33.4574 15.656C33.6908 15.4973 33.8074 15.2827 33.8074 15.012C33.8074 14.7973 33.7328 14.6293 33.5834 14.508C33.4434 14.3773 33.2148 14.2793 32.8974 14.214L31.4974 13.948C30.9001 13.8173 30.4428 13.5933 30.1254 13.276C29.8174 12.9587 29.6634 12.5433 29.6634 12.03C29.6634 11.5913 29.7801 11.204 30.0134 10.868C30.2561 10.532 30.5968 10.2707 31.0354 10.084C31.4834 9.888 32.0061 9.79 32.6034 9.79C33.1261 9.79 33.6161 9.86 34.0734 10C34.5401 10.14 34.9321 10.35 35.2494 10.63L34.7454 11.764C34.4561 11.5307 34.1248 11.3487 33.7514 11.218C33.3781 11.0873 33.0141 11.022 32.6594 11.022C32.1741 11.022 31.8194 11.1107 31.5954 11.288C31.3714 11.456 31.2594 11.6753 31.2594 11.946C31.2594 12.1513 31.3248 12.324 31.4554 12.464C31.5954 12.5947 31.8101 12.6927 32.0994 12.758L33.4994 13.024C34.1248 13.1453 34.5961 13.36 34.9134 13.668C35.2401 13.9667 35.4034 14.3773 35.4034 14.9C35.4034 15.3667 35.2774 15.768 35.0254 16.104C34.7734 16.44 34.4234 16.6967 33.9754 16.874C33.5274 17.0513 33.0048 17.14 32.4074 17.14ZM39.5211 17.14C38.9145 17.14 38.3545 17.07 37.8411 16.93C37.3371 16.7807 36.9125 16.5753 36.5671 16.314L37.0571 15.138C37.4118 15.3807 37.8038 15.5673 38.2331 15.698C38.6625 15.8287 39.0965 15.894 39.5351 15.894C40.0018 15.894 40.3471 15.8147 40.5711 15.656C40.8045 15.4973 40.9211 15.2827 40.9211 15.012C40.9211 14.7973 40.8465 14.6293 40.6971 14.508C40.5571 14.3773 40.3285 14.2793 40.0111 14.214L38.6111 13.948C38.0138 13.8173 37.5565 13.5933 37.2391 13.276C36.9311 12.9587 36.7771 12.5433 36.7771 12.03C36.7771 11.5913 36.8938 11.204 37.1271 10.868C37.3698 10.532 37.7105 10.2707 38.1491 10.084C38.5971 9.888 39.1198 9.79 39.7171 9.79C40.2398 9.79 40.7298 9.86 41.1871 10C41.6538 10.14 42.0458 10.35 42.3631 10.63L41.8591 11.764C41.5698 11.5307 41.2385 11.3487 40.8651 11.218C40.4918 11.0873 40.1278 11.022 39.7731 11.022C39.2878 11.022 38.9331 11.1107 38.7091 11.288C38.4851 11.456 38.3731 11.6753 38.3731 11.946C38.3731 12.1513 38.4385 12.324 38.5691 12.464C38.7091 12.5947 38.9238 12.6927 39.2131 12.758L40.6131 13.024C41.2385 13.1453 41.7098 13.36 42.0271 13.668C42.3538 13.9667 42.5171 14.3773 42.5171 14.9C42.5171 15.3667 42.3911 15.768 42.1391 16.104C41.8871 16.44 41.5371 16.6967 41.0891 16.874C40.6411 17.0513 40.1185 17.14 39.5211 17.14ZM46.6628 17.14C45.7948 17.14 45.1461 16.902 44.7168 16.426C44.2875 15.95 44.0728 15.222 44.0728 14.242V9.93H45.8228V14.228C45.8228 14.7507 45.9301 15.138 46.1448 15.39C46.3595 15.6327 46.6861 15.754 47.1248 15.754C47.6195 15.754 48.0208 15.586 48.3288 15.25C48.6461 14.914 48.8048 14.4707 48.8048 13.92V9.93H50.5548V17H48.8468V15.558H49.0428C48.8375 16.062 48.5248 16.454 48.1048 16.734C47.6941 17.0047 47.2135 17.14 46.6628 17.14ZM55.9706 17.14C54.7853 17.14 53.8566 16.8133 53.1846 16.16C52.5126 15.5067 52.1766 14.6107 52.1766 13.472C52.1766 12.7347 52.3213 12.0907 52.6106 11.54C52.9 10.9893 53.3013 10.56 53.8146 10.252C54.3373 9.944 54.944 9.79 55.6346 9.79C56.316 9.79 56.8853 9.93467 57.3426 10.224C57.8 10.5133 58.1453 10.9193 58.3786 11.442C58.6213 11.9647 58.7426 12.576 58.7426 13.276V13.738H53.5906V12.814H57.4966L57.2586 13.01C57.2586 12.3567 57.1186 11.8573 56.8386 11.512C56.568 11.1667 56.1713 10.994 55.6486 10.994C55.07 10.994 54.622 11.1993 54.3046 11.61C53.9966 12.0207 53.8426 12.5947 53.8426 13.332V13.514C53.8426 14.2793 54.0293 14.8533 54.4026 15.236C54.7853 15.6093 55.322 15.796 56.0126 15.796C56.414 15.796 56.7873 15.7447 57.1326 15.642C57.4873 15.53 57.8233 15.3527 58.1406 15.11L58.6586 16.286C58.3226 16.5567 57.9213 16.7667 57.4546 16.916C56.988 17.0653 56.4933 17.14 55.9706 17.14ZM63.0686 17.14C62.4526 17.14 61.9066 16.9953 61.4306 16.706C60.9639 16.4073 60.5999 15.9827 60.3386 15.432C60.0772 14.8813 59.9466 14.2233 59.9466 13.458C59.9466 12.6927 60.0772 12.0393 60.3386 11.498C60.5999 10.9473 60.9639 10.5273 61.4306 10.238C61.9066 9.93933 62.4526 9.79 63.0686 9.79C63.6566 9.79 64.1746 9.93467 64.6226 10.224C65.0799 10.504 65.3832 10.8867 65.5326 11.372H65.3506V6.696H67.1006V17H65.3786V15.502H65.5466C65.3972 16.006 65.0939 16.4073 64.6366 16.706C64.1886 16.9953 63.6659 17.14 63.0686 17.14ZM63.5586 15.796C64.1092 15.796 64.5526 15.6047 64.8886 15.222C65.2246 14.83 65.3926 14.242 65.3926 13.458C65.3926 12.674 65.2246 12.0907 64.8886 11.708C64.5526 11.3253 64.1092 11.134 63.5586 11.134C63.0079 11.134 62.5599 11.3253 62.2146 11.708C61.8786 12.0907 61.7106 12.674 61.7106 13.458C61.7106 14.242 61.8786 14.83 62.2146 15.222C62.5599 15.6047 63.0079 15.796 63.5586 15.796Z" fill="#2563EB"/>
</svg>
