<svg width="89" height="24" viewBox="0 0 89 24" fill="none" xmlns="http://www.w3.org/2000/svg">
<rect x="0.856934" width="88" height="24" rx="4" fill="#FFFBEB"/>
<circle cx="12.8569" cy="12" r="4" fill="#D97706"/>
<path d="M25.9489 17V7.13H30.3309C31.4136 7.13 32.2396 7.39133 32.8089 7.914C33.3783 8.43667 33.6629 9.15533 33.6629 10.07C33.6629 10.9753 33.3783 11.694 32.8089 12.226C32.2396 12.758 31.4136 13.024 30.3309 13.024H27.7549V17H25.9489ZM27.7549 11.596H30.1209C30.7183 11.596 31.1663 11.4653 31.4649 11.204C31.7636 10.9333 31.9129 10.5553 31.9129 10.07C31.9129 9.58467 31.7636 9.21133 31.4649 8.95C31.1663 8.67933 30.7183 8.544 30.1209 8.544H27.7549V11.596ZM38.3074 17.14C37.122 17.14 36.1934 16.8133 35.5214 16.16C34.8494 15.5067 34.5134 14.6107 34.5134 13.472C34.5134 12.7347 34.658 12.0907 34.9474 11.54C35.2367 10.9893 35.638 10.56 36.1514 10.252C36.674 9.944 37.2807 9.79 37.9714 9.79C38.6527 9.79 39.222 9.93467 39.6794 10.224C40.1367 10.5133 40.482 10.9193 40.7154 11.442C40.958 11.9647 41.0794 12.576 41.0794 13.276V13.738H35.9274V12.814H39.8334L39.5954 13.01C39.5954 12.3567 39.4554 11.8573 39.1754 11.512C38.9047 11.1667 38.508 10.994 37.9854 10.994C37.4067 10.994 36.9587 11.1993 36.6414 11.61C36.3334 12.0207 36.1794 12.5947 36.1794 13.332V13.514C36.1794 14.2793 36.366 14.8533 36.7394 15.236C37.122 15.6093 37.6587 15.796 38.3494 15.796C38.7507 15.796 39.124 15.7447 39.4694 15.642C39.824 15.53 40.16 15.3527 40.4774 15.11L40.9954 16.286C40.6594 16.5567 40.258 16.7667 39.7914 16.916C39.3247 17.0653 38.83 17.14 38.3074 17.14ZM42.6613 17V11.694C42.6613 11.4047 42.6519 11.1107 42.6333 10.812C42.6146 10.5133 42.5866 10.2193 42.5493 9.93H44.2433L44.3833 11.33H44.2153C44.4393 10.8353 44.7706 10.4573 45.2093 10.196C45.6479 9.92533 46.1566 9.79 46.7353 9.79C47.5659 9.79 48.1913 10.0233 48.6113 10.49C49.0313 10.9567 49.2413 11.6847 49.2413 12.674V17H47.4913V12.758C47.4913 12.1887 47.3793 11.7827 47.1553 11.54C46.9406 11.288 46.6139 11.162 46.1753 11.162C45.6339 11.162 45.2046 11.33 44.8873 11.666C44.5699 12.002 44.4113 12.45 44.4113 13.01V17H42.6613ZM53.9408 17.14C53.3248 17.14 52.7788 16.9953 52.3028 16.706C51.8362 16.4073 51.4722 15.9827 51.2108 15.432C50.9495 14.8813 50.8188 14.2233 50.8188 13.458C50.8188 12.6927 50.9495 12.0393 51.2108 11.498C51.4722 10.9473 51.8362 10.5273 52.3028 10.238C52.7788 9.93933 53.3248 9.79 53.9408 9.79C54.5288 9.79 55.0468 9.93467 55.4948 10.224C55.9522 10.504 56.2555 10.8867 56.4048 11.372H56.2228V6.696H57.9728V17H56.2508V15.502H56.4188C56.2695 16.006 55.9662 16.4073 55.5088 16.706C55.0608 16.9953 54.5382 17.14 53.9408 17.14ZM54.4308 15.796C54.9815 15.796 55.4248 15.6047 55.7608 15.222C56.0968 14.83 56.2648 14.242 56.2648 13.458C56.2648 12.674 56.0968 12.0907 55.7608 11.708C55.4248 11.3253 54.9815 11.134 54.4308 11.134C53.8802 11.134 53.4322 11.3253 53.0868 11.708C52.7508 12.0907 52.5828 12.674 52.5828 13.458C52.5828 14.242 52.7508 14.83 53.0868 15.222C53.4322 15.6047 53.8802 15.796 54.4308 15.796ZM59.9785 17V9.93H61.7285V17H59.9785ZM59.8805 8.6V6.892H61.8265V8.6H59.8805ZM63.7289 17V11.694C63.7289 11.4047 63.7195 11.1107 63.7009 10.812C63.6822 10.5133 63.6542 10.2193 63.6169 9.93H65.3109L65.4509 11.33H65.2829C65.5069 10.8353 65.8382 10.4573 66.2769 10.196C66.7155 9.92533 67.2242 9.79 67.8029 9.79C68.6335 9.79 69.2589 10.0233 69.6789 10.49C70.0989 10.9567 70.3089 11.6847 70.3089 12.674V17H68.5589V12.758C68.5589 12.1887 68.4469 11.7827 68.2229 11.54C68.0082 11.288 67.6815 11.162 67.2429 11.162C66.7015 11.162 66.2722 11.33 65.9549 11.666C65.6375 12.002 65.4789 12.45 65.4789 13.01V17H63.7289ZM75.5404 20.136C74.8871 20.136 74.2944 20.066 73.7624 19.926C73.2397 19.786 72.7731 19.5713 72.3624 19.282L72.7404 18.022C73.0111 18.1993 73.2911 18.344 73.5804 18.456C73.8697 18.568 74.1684 18.652 74.4764 18.708C74.7844 18.764 75.0971 18.792 75.4144 18.792C76.0677 18.792 76.5531 18.6287 76.8704 18.302C77.1971 17.9847 77.3604 17.5273 77.3604 16.93V15.236H77.5004C77.3511 15.7213 77.0477 16.1087 76.5904 16.398C76.1424 16.6873 75.6244 16.832 75.0364 16.832C74.4017 16.832 73.8464 16.692 73.3704 16.412C72.9037 16.1227 72.5397 15.712 72.2784 15.18C72.0171 14.648 71.8864 14.0227 71.8864 13.304C71.8864 12.5853 72.0171 11.9647 72.2784 11.442C72.5397 10.91 72.9037 10.504 73.3704 10.224C73.8464 9.93467 74.4017 9.79 75.0364 9.79C75.6337 9.79 76.1517 9.93467 76.5904 10.224C77.0384 10.504 77.3371 10.8867 77.4864 11.372L77.3604 11.288L77.5004 9.93H79.1944C79.1571 10.2193 79.1291 10.5133 79.1104 10.812C79.0917 11.1107 79.0824 11.4047 79.0824 11.694V16.72C79.0824 17.8307 78.7791 18.6753 78.1724 19.254C77.5751 19.842 76.6977 20.136 75.5404 20.136ZM75.5124 15.488C76.0724 15.488 76.5157 15.3013 76.8424 14.928C77.1784 14.5453 77.3464 14.004 77.3464 13.304C77.3464 12.604 77.1784 12.0673 76.8424 11.694C76.5157 11.3207 76.0724 11.134 75.5124 11.134C74.9431 11.134 74.4904 11.3207 74.1544 11.694C73.8184 12.0673 73.6504 12.604 73.6504 13.304C73.6504 14.004 73.8184 14.5453 74.1544 14.928C74.4904 15.3013 74.9431 15.488 75.5124 15.488Z" fill="#D97706"/>
</svg>
