<svg width="106" height="24" viewBox="0 0 106 24" fill="none" xmlns="http://www.w3.org/2000/svg">
<rect x="0.856934" width="105" height="24" rx="4" fill="#ECFDF5"/>
<circle cx="12.8569" cy="12" r="4" fill="#059669"/>
<path d="M30.5409 17.14C29.5143 17.14 28.6323 16.9347 27.8949 16.524C27.1669 16.104 26.6069 15.516 26.2149 14.76C25.8229 13.9947 25.6269 13.094 25.6269 12.058C25.6269 11.022 25.8229 10.126 26.2149 9.37C26.6069 8.614 27.1669 8.03067 27.8949 7.62C28.6323 7.2 29.5143 6.99 30.5409 6.99C31.2316 6.99 31.8523 7.088 32.4029 7.284C32.9629 7.48 33.4436 7.76933 33.8449 8.152L33.2569 9.58C32.8183 9.22533 32.3936 8.97333 31.9829 8.824C31.5816 8.66533 31.1196 8.586 30.5969 8.586C29.5983 8.586 28.8329 8.88933 28.3009 9.496C27.7783 10.0933 27.5169 10.9473 27.5169 12.058C27.5169 13.1687 27.7783 14.0273 28.3009 14.634C28.8329 15.2407 29.5983 15.544 30.5969 15.544C31.1196 15.544 31.5816 15.4693 31.9829 15.32C32.3936 15.1613 32.8183 14.9 33.2569 14.536L33.8449 15.964C33.4436 16.3373 32.9629 16.6267 32.4029 16.832C31.8523 17.0373 31.2316 17.14 30.5409 17.14ZM38.1927 17.14C37.4647 17.14 36.8347 16.9907 36.3027 16.692C35.7707 16.3933 35.3554 15.9687 35.0567 15.418C34.7674 14.8673 34.6227 14.214 34.6227 13.458C34.6227 12.702 34.7674 12.0533 35.0567 11.512C35.3554 10.9613 35.7707 10.5367 36.3027 10.238C36.8347 9.93933 37.4647 9.79 38.1927 9.79C38.9207 9.79 39.5507 9.93933 40.0827 10.238C40.6241 10.5367 41.0394 10.9613 41.3287 11.512C41.6274 12.0533 41.7767 12.702 41.7767 13.458C41.7767 14.214 41.6274 14.8673 41.3287 15.418C41.0394 15.9687 40.6241 16.3933 40.0827 16.692C39.5507 16.9907 38.9207 17.14 38.1927 17.14ZM38.1927 15.796C38.7434 15.796 39.1821 15.6047 39.5087 15.222C39.8354 14.83 39.9987 14.242 39.9987 13.458C39.9987 12.674 39.8354 12.0907 39.5087 11.708C39.1821 11.3253 38.7434 11.134 38.1927 11.134C37.6421 11.134 37.2034 11.3253 36.8767 11.708C36.5501 12.0907 36.3867 12.674 36.3867 13.458C36.3867 14.242 36.5501 14.83 36.8767 15.222C37.2034 15.6047 37.6421 15.796 38.1927 15.796ZM43.3859 17V11.694C43.3859 11.4047 43.3766 11.1107 43.3579 10.812C43.3392 10.5133 43.3112 10.2193 43.2739 9.93H44.9679L45.1079 11.33H44.9399C45.1359 10.8447 45.4346 10.4667 45.8359 10.196C46.2466 9.92533 46.7319 9.79 47.2919 9.79C47.8519 9.79 48.3139 9.92533 48.6779 10.196C49.0512 10.4573 49.3126 10.868 49.4619 11.428H49.2379C49.4339 10.924 49.7559 10.5273 50.2039 10.238C50.6519 9.93933 51.1652 9.79 51.7439 9.79C52.5372 9.79 53.1299 10.0233 53.5219 10.49C53.9139 10.9567 54.1099 11.6847 54.1099 12.674V17H52.3599V12.744C52.3599 12.184 52.2666 11.7827 52.0799 11.54C51.8932 11.288 51.5946 11.162 51.1839 11.162C50.6986 11.162 50.3159 11.3347 50.0359 11.68C49.7559 12.016 49.6159 12.4733 49.6159 13.052V17H47.8659V12.744C47.8659 12.184 47.7726 11.7827 47.5859 11.54C47.3992 11.288 47.1006 11.162 46.6899 11.162C46.2046 11.162 45.8219 11.3347 45.5419 11.68C45.2712 12.016 45.1359 12.4733 45.1359 13.052V17H43.3859ZM56.0777 20.024V11.694C56.0777 11.4047 56.0683 11.1107 56.0497 10.812C56.031 10.5133 56.003 10.2193 55.9657 9.93H57.6597L57.8137 11.414H57.6597C57.7997 10.9193 58.0937 10.5273 58.5417 10.238C58.999 9.93933 59.5263 9.79 60.1237 9.79C60.749 9.79 61.295 9.93933 61.7617 10.238C62.2284 10.5273 62.5924 10.9473 62.8537 11.498C63.115 12.0393 63.2457 12.6927 63.2457 13.458C63.2457 14.2233 63.115 14.8813 62.8537 15.432C62.5924 15.9827 62.2284 16.4073 61.7617 16.706C61.295 16.9953 60.749 17.14 60.1237 17.14C59.5357 17.14 59.0177 16.9953 58.5697 16.706C58.1217 16.4167 57.823 16.0293 57.6737 15.544H57.8277V20.024H56.0777ZM59.6337 15.796C60.1937 15.796 60.6417 15.6047 60.9777 15.222C61.3137 14.83 61.4817 14.242 61.4817 13.458C61.4817 12.674 61.3137 12.0907 60.9777 11.708C60.6417 11.3253 60.1937 11.134 59.6337 11.134C59.083 11.134 58.6397 11.3253 58.3037 11.708C57.9677 12.0907 57.7997 12.674 57.7997 13.458C57.7997 14.242 57.9677 14.83 58.3037 15.222C58.6397 15.6047 59.083 15.796 59.6337 15.796ZM64.8593 17V6.696H66.6093V17H64.8593ZM72.0257 17.14C70.8404 17.14 69.9117 16.8133 69.2397 16.16C68.5677 15.5067 68.2317 14.6107 68.2317 13.472C68.2317 12.7347 68.3764 12.0907 68.6657 11.54C68.955 10.9893 69.3564 10.56 69.8697 10.252C70.3924 9.944 70.999 9.79 71.6897 9.79C72.371 9.79 72.9404 9.93467 73.3977 10.224C73.855 10.5133 74.2004 10.9193 74.4337 11.442C74.6764 11.9647 74.7977 12.576 74.7977 13.276V13.738H69.6457V12.814H73.5517L73.3137 13.01C73.3137 12.3567 73.1737 11.8573 72.8937 11.512C72.623 11.1667 72.2264 10.994 71.7037 10.994C71.125 10.994 70.677 11.1993 70.3597 11.61C70.0517 12.0207 69.8977 12.5947 69.8977 13.332V13.514C69.8977 14.2793 70.0844 14.8533 70.4577 15.236C70.8404 15.6093 71.377 15.796 72.0677 15.796C72.469 15.796 72.8424 15.7447 73.1877 15.642C73.5424 15.53 73.8784 15.3527 74.1957 15.11L74.7137 16.286C74.3777 16.5567 73.9764 16.7667 73.5097 16.916C73.043 17.0653 72.5484 17.14 72.0257 17.14ZM79.3763 17.14C78.5363 17.14 77.9016 16.9207 77.4723 16.482C77.043 16.0433 76.8283 15.3853 76.8283 14.508V11.246H75.4703V9.93H76.8283V8.124L78.5783 7.676V9.93H80.4683V11.246H78.5783V14.396C78.5783 14.8813 78.6716 15.222 78.8583 15.418C79.045 15.614 79.3016 15.712 79.6283 15.712C79.8056 15.712 79.955 15.698 80.0763 15.67C80.207 15.642 80.333 15.6047 80.4543 15.558V16.944C80.2956 17.0093 80.1183 17.056 79.9223 17.084C79.7356 17.1213 79.5536 17.14 79.3763 17.14ZM85.1046 17.14C83.9193 17.14 82.9906 16.8133 82.3186 16.16C81.6466 15.5067 81.3106 14.6107 81.3106 13.472C81.3106 12.7347 81.4553 12.0907 81.7446 11.54C82.034 10.9893 82.4353 10.56 82.9486 10.252C83.4713 9.944 84.078 9.79 84.7686 9.79C85.45 9.79 86.0193 9.93467 86.4766 10.224C86.934 10.5133 87.2793 10.9193 87.5126 11.442C87.7553 11.9647 87.8766 12.576 87.8766 13.276V13.738H82.7246V12.814H86.6306L86.3926 13.01C86.3926 12.3567 86.2526 11.8573 85.9726 11.512C85.702 11.1667 85.3053 10.994 84.7826 10.994C84.204 10.994 83.756 11.1993 83.4386 11.61C83.1306 12.0207 82.9766 12.5947 82.9766 13.332V13.514C82.9766 14.2793 83.1633 14.8533 83.5366 15.236C83.9193 15.6093 84.456 15.796 85.1466 15.796C85.548 15.796 85.9213 15.7447 86.2666 15.642C86.6213 15.53 86.9573 15.3527 87.2746 15.11L87.7926 16.286C87.4566 16.5567 87.0553 16.7667 86.5886 16.916C86.122 17.0653 85.6273 17.14 85.1046 17.14ZM92.2025 17.14C91.5865 17.14 91.0405 16.9953 90.5645 16.706C90.0979 16.4073 89.7339 15.9827 89.4725 15.432C89.2112 14.8813 89.0805 14.2233 89.0805 13.458C89.0805 12.6927 89.2112 12.0393 89.4725 11.498C89.7339 10.9473 90.0979 10.5273 90.5645 10.238C91.0405 9.93933 91.5865 9.79 92.2025 9.79C92.7905 9.79 93.3085 9.93467 93.7565 10.224C94.2139 10.504 94.5172 10.8867 94.6665 11.372H94.4845V6.696H96.2345V17H94.5125V15.502H94.6805C94.5312 16.006 94.2279 16.4073 93.7705 16.706C93.3225 16.9953 92.7999 17.14 92.2025 17.14ZM92.6925 15.796C93.2432 15.796 93.6865 15.6047 94.0225 15.222C94.3585 14.83 94.5265 14.242 94.5265 13.458C94.5265 12.674 94.3585 12.0907 94.0225 11.708C93.6865 11.3253 93.2432 11.134 92.6925 11.134C92.1419 11.134 91.6939 11.3253 91.3485 11.708C91.0125 12.0907 90.8445 12.674 90.8445 13.458C90.8445 14.242 91.0125 14.83 91.3485 15.222C91.6939 15.6047 92.1419 15.796 92.6925 15.796Z" fill="#059669"/>
</svg>
