<svg width="79" height="24" viewBox="0 0 79 24" fill="none" xmlns="http://www.w3.org/2000/svg">
<rect x="0.856934" width="78" height="24" rx="4" fill="#F8FAFC"/>
<circle cx="12.8569" cy="12" r="4" fill="#475569"/>
<path d="M30.5409 17.14C29.5143 17.14 28.6323 16.9347 27.8949 16.524C27.1669 16.104 26.6069 15.516 26.2149 14.76C25.8229 13.9947 25.6269 13.094 25.6269 12.058C25.6269 11.022 25.8229 10.126 26.2149 9.37C26.6069 8.614 27.1669 8.03067 27.8949 7.62C28.6323 7.2 29.5143 6.99 30.5409 6.99C31.2316 6.99 31.8523 7.088 32.4029 7.284C32.9629 7.48 33.4436 7.76933 33.8449 8.152L33.2569 9.58C32.8183 9.22533 32.3936 8.97333 31.9829 8.824C31.5816 8.66533 31.1196 8.586 30.5969 8.586C29.5983 8.586 28.8329 8.88933 28.3009 9.496C27.7783 10.0933 27.5169 10.9473 27.5169 12.058C27.5169 13.1687 27.7783 14.0273 28.3009 14.634C28.8329 15.2407 29.5983 15.544 30.5969 15.544C31.1196 15.544 31.5816 15.4693 31.9829 15.32C32.3936 15.1613 32.8183 14.9 33.2569 14.536L33.8449 15.964C33.4436 16.3373 32.9629 16.6267 32.4029 16.832C31.8523 17.0373 31.2316 17.14 30.5409 17.14ZM35.4929 17V6.696H37.2429V17H35.4929ZM42.4353 17.14C41.7073 17.14 41.0773 16.9907 40.5453 16.692C40.0133 16.3933 39.598 15.9687 39.2993 15.418C39.01 14.8673 38.8653 14.214 38.8653 13.458C38.8653 12.702 39.01 12.0533 39.2993 11.512C39.598 10.9613 40.0133 10.5367 40.5453 10.238C41.0773 9.93933 41.7073 9.79 42.4353 9.79C43.1633 9.79 43.7933 9.93933 44.3253 10.238C44.8666 10.5367 45.282 10.9613 45.5713 11.512C45.87 12.0533 46.0193 12.702 46.0193 13.458C46.0193 14.214 45.87 14.8673 45.5713 15.418C45.282 15.9687 44.8666 16.3933 44.3253 16.692C43.7933 16.9907 43.1633 17.14 42.4353 17.14ZM42.4353 15.796C42.986 15.796 43.4246 15.6047 43.7513 15.222C44.078 14.83 44.2413 14.242 44.2413 13.458C44.2413 12.674 44.078 12.0907 43.7513 11.708C43.4246 11.3253 42.986 11.134 42.4353 11.134C41.8846 11.134 41.446 11.3253 41.1193 11.708C40.7926 12.0907 40.6293 12.674 40.6293 13.458C40.6293 14.242 40.7926 14.83 41.1193 15.222C41.446 15.6047 41.8846 15.796 42.4353 15.796ZM50.1485 17.14C49.5418 17.14 48.9818 17.07 48.4685 16.93C47.9645 16.7807 47.5398 16.5753 47.1945 16.314L47.6845 15.138C48.0391 15.3807 48.4311 15.5673 48.8605 15.698C49.2898 15.8287 49.7238 15.894 50.1625 15.894C50.6291 15.894 50.9745 15.8147 51.1985 15.656C51.4318 15.4973 51.5485 15.2827 51.5485 15.012C51.5485 14.7973 51.4738 14.6293 51.3245 14.508C51.1845 14.3773 50.9558 14.2793 50.6385 14.214L49.2385 13.948C48.6411 13.8173 48.1838 13.5933 47.8665 13.276C47.5585 12.9587 47.4045 12.5433 47.4045 12.03C47.4045 11.5913 47.5211 11.204 47.7545 10.868C47.9971 10.532 48.3378 10.2707 48.7765 10.084C49.2245 9.888 49.7471 9.79 50.3445 9.79C50.8671 9.79 51.3571 9.86 51.8145 10C52.2811 10.14 52.6731 10.35 52.9905 10.63L52.4865 11.764C52.1971 11.5307 51.8658 11.3487 51.4925 11.218C51.1191 11.0873 50.7551 11.022 50.4005 11.022C49.9151 11.022 49.5605 11.1107 49.3365 11.288C49.1125 11.456 49.0005 11.6753 49.0005 11.946C49.0005 12.1513 49.0658 12.324 49.1965 12.464C49.3365 12.5947 49.5511 12.6927 49.8405 12.758L51.2405 13.024C51.8658 13.1453 52.3371 13.36 52.6545 13.668C52.9811 13.9667 53.1445 14.3773 53.1445 14.9C53.1445 15.3667 53.0185 15.768 52.7665 16.104C52.5145 16.44 52.1645 16.6967 51.7165 16.874C51.2685 17.0513 50.7458 17.14 50.1485 17.14ZM58.1581 17.14C56.9728 17.14 56.0441 16.8133 55.3721 16.16C54.7001 15.5067 54.3641 14.6107 54.3641 13.472C54.3641 12.7347 54.5088 12.0907 54.7981 11.54C55.0875 10.9893 55.4888 10.56 56.0021 10.252C56.5248 9.944 57.1315 9.79 57.8221 9.79C58.5035 9.79 59.0728 9.93467 59.5301 10.224C59.9875 10.5133 60.3328 10.9193 60.5661 11.442C60.8088 11.9647 60.9301 12.576 60.9301 13.276V13.738H55.7781V12.814H59.6841L59.4461 13.01C59.4461 12.3567 59.3061 11.8573 59.0261 11.512C58.7555 11.1667 58.3588 10.994 57.8361 10.994C57.2575 10.994 56.8095 11.1993 56.4921 11.61C56.1841 12.0207 56.0301 12.5947 56.0301 13.332V13.514C56.0301 14.2793 56.2168 14.8533 56.5901 15.236C56.9728 15.6093 57.5095 15.796 58.2001 15.796C58.6015 15.796 58.9748 15.7447 59.3201 15.642C59.6748 15.53 60.0108 15.3527 60.3281 15.11L60.8461 16.286C60.5101 16.5567 60.1088 16.7667 59.6421 16.916C59.1755 17.0653 58.6808 17.14 58.1581 17.14ZM65.2561 17.14C64.6401 17.14 64.0941 16.9953 63.6181 16.706C63.1514 16.4073 62.7874 15.9827 62.5261 15.432C62.2647 14.8813 62.1341 14.2233 62.1341 13.458C62.1341 12.6927 62.2647 12.0393 62.5261 11.498C62.7874 10.9473 63.1514 10.5273 63.6181 10.238C64.0941 9.93933 64.6401 9.79 65.2561 9.79C65.8441 9.79 66.3621 9.93467 66.8101 10.224C67.2674 10.504 67.5707 10.8867 67.7201 11.372H67.5381V6.696H69.2881V17H67.5661V15.502H67.7341C67.5847 16.006 67.2814 16.4073 66.8241 16.706C66.3761 16.9953 65.8534 17.14 65.2561 17.14ZM65.7461 15.796C66.2967 15.796 66.7401 15.6047 67.0761 15.222C67.4121 14.83 67.5801 14.242 67.5801 13.458C67.5801 12.674 67.4121 12.0907 67.0761 11.708C66.7401 11.3253 66.2967 11.134 65.7461 11.134C65.1954 11.134 64.7474 11.3253 64.4021 11.708C64.0661 12.0907 63.8981 12.674 63.8981 13.458C63.8981 14.242 64.0661 14.83 64.4021 15.222C64.7474 15.6047 65.1954 15.796 65.7461 15.796Z" fill="#475569"/>
</svg>
