<svg width="97" height="24" viewBox="0 0 97 24" fill="none" xmlns="http://www.w3.org/2000/svg">
<rect x="0.856934" width="96" height="24" rx="4" fill="#ECFDF5"/>
<circle cx="12.8569" cy="12" r="4" fill="#059669"/>
<path d="M25.9489 17V7.13H29.5329C30.6623 7.13 31.6143 7.326 32.3889 7.718C33.1729 8.10067 33.7656 8.66067 34.1669 9.398C34.5683 10.126 34.7689 11.0127 34.7689 12.058C34.7689 13.094 34.5683 13.9807 34.1669 14.718C33.7656 15.4553 33.1729 16.02 32.3889 16.412C31.6143 16.804 30.6623 17 29.5329 17H25.9489ZM27.7549 15.502H29.4209C30.6156 15.502 31.5023 15.2173 32.0809 14.648C32.6596 14.0787 32.9489 13.2153 32.9489 12.058C32.9489 10.8913 32.6596 10.028 32.0809 9.468C31.5023 8.89867 30.6156 8.614 29.4209 8.614H27.7549V15.502ZM39.989 17.14C38.8037 17.14 37.875 16.8133 37.203 16.16C36.531 15.5067 36.195 14.6107 36.195 13.472C36.195 12.7347 36.3397 12.0907 36.629 11.54C36.9183 10.9893 37.3197 10.56 37.833 10.252C38.3557 9.944 38.9623 9.79 39.653 9.79C40.3343 9.79 40.9037 9.93467 41.361 10.224C41.8183 10.5133 42.1637 10.9193 42.397 11.442C42.6397 11.9647 42.761 12.576 42.761 13.276V13.738H37.609V12.814H41.515L41.277 13.01C41.277 12.3567 41.137 11.8573 40.857 11.512C40.5863 11.1667 40.1897 10.994 39.667 10.994C39.0883 10.994 38.6403 11.1993 38.323 11.61C38.015 12.0207 37.861 12.5947 37.861 13.332V13.514C37.861 14.2793 38.0477 14.8533 38.421 15.236C38.8037 15.6093 39.3403 15.796 40.031 15.796C40.4323 15.796 40.8057 15.7447 41.151 15.642C41.5057 15.53 41.8417 15.3527 42.159 15.11L42.677 16.286C42.341 16.5567 41.9397 16.7667 41.473 16.916C41.0063 17.0653 40.5117 17.14 39.989 17.14ZM44.3429 17V6.696H46.0929V17H44.3429ZM48.0933 17V9.93H49.8433V17H48.0933ZM47.9953 8.6V6.892H49.9413V8.6H47.9953ZM53.9157 17L50.8637 9.93H52.7257L54.9377 15.46H54.5037L56.7717 9.93H58.5217L55.4557 17H53.9157ZM62.8382 17.14C61.6529 17.14 60.7242 16.8133 60.0522 16.16C59.3802 15.5067 59.0442 14.6107 59.0442 13.472C59.0442 12.7347 59.1889 12.0907 59.4782 11.54C59.7675 10.9893 60.1689 10.56 60.6822 10.252C61.2049 9.944 61.8115 9.79 62.5022 9.79C63.1835 9.79 63.7529 9.93467 64.2102 10.224C64.6675 10.5133 65.0129 10.9193 65.2462 11.442C65.4889 11.9647 65.6102 12.576 65.6102 13.276V13.738H60.4582V12.814H64.3642L64.1262 13.01C64.1262 12.3567 63.9862 11.8573 63.7062 11.512C63.4355 11.1667 63.0389 10.994 62.5162 10.994C61.9375 10.994 61.4895 11.1993 61.1722 11.61C60.8642 12.0207 60.7102 12.5947 60.7102 13.332V13.514C60.7102 14.2793 60.8969 14.8533 61.2702 15.236C61.6529 15.6093 62.1895 15.796 62.8802 15.796C63.2815 15.796 63.6549 15.7447 64.0002 15.642C64.3549 15.53 64.6909 15.3527 65.0082 15.11L65.5262 16.286C65.1902 16.5567 64.7889 16.7667 64.3222 16.916C63.8555 17.0653 63.3609 17.14 62.8382 17.14ZM67.1781 17V11.736C67.1781 11.4373 67.1688 11.134 67.1501 10.826C67.1408 10.518 67.1175 10.2193 67.0801 9.93H68.7741L68.9701 11.862H68.6901C68.7835 11.3953 68.9375 11.008 69.1521 10.7C69.3761 10.392 69.6468 10.1633 69.9641 10.014C70.2815 9.86467 70.6268 9.79 71.0001 9.79C71.1681 9.79 71.3035 9.79933 71.4061 9.818C71.5088 9.82733 71.6115 9.85067 71.7141 9.888L71.7001 11.428C71.5228 11.3533 71.3688 11.3067 71.2381 11.288C71.1168 11.2693 70.9628 11.26 70.7761 11.26C70.3748 11.26 70.0341 11.344 69.7541 11.512C69.4835 11.68 69.2781 11.9133 69.1381 12.212C69.0075 12.5107 68.9421 12.8513 68.9421 13.234V17H67.1781ZM76.0949 17.14C74.9095 17.14 73.9809 16.8133 73.3089 16.16C72.6369 15.5067 72.3009 14.6107 72.3009 13.472C72.3009 12.7347 72.4455 12.0907 72.7349 11.54C73.0242 10.9893 73.4255 10.56 73.9389 10.252C74.4615 9.944 75.0682 9.79 75.7589 9.79C76.4402 9.79 77.0095 9.93467 77.4669 10.224C77.9242 10.5133 78.2695 10.9193 78.5029 11.442C78.7455 11.9647 78.8669 12.576 78.8669 13.276V13.738H73.7149V12.814H77.6209L77.3829 13.01C77.3829 12.3567 77.2429 11.8573 76.9629 11.512C76.6922 11.1667 76.2955 10.994 75.7729 10.994C75.1942 10.994 74.7462 11.1993 74.4289 11.61C74.1209 12.0207 73.9669 12.5947 73.9669 13.332V13.514C73.9669 14.2793 74.1535 14.8533 74.5269 15.236C74.9095 15.6093 75.4462 15.796 76.1369 15.796C76.5382 15.796 76.9115 15.7447 77.2569 15.642C77.6115 15.53 77.9475 15.3527 78.2649 15.11L78.7829 16.286C78.4469 16.5567 78.0455 16.7667 77.5789 16.916C77.1122 17.0653 76.6175 17.14 76.0949 17.14ZM83.1928 17.14C82.5768 17.14 82.0308 16.9953 81.5548 16.706C81.0881 16.4073 80.7241 15.9827 80.4628 15.432C80.2014 14.8813 80.0708 14.2233 80.0708 13.458C80.0708 12.6927 80.2014 12.0393 80.4628 11.498C80.7241 10.9473 81.0881 10.5273 81.5548 10.238C82.0308 9.93933 82.5768 9.79 83.1928 9.79C83.7808 9.79 84.2988 9.93467 84.7468 10.224C85.2041 10.504 85.5074 10.8867 85.6568 11.372H85.4748V6.696H87.2248V17H85.5028V15.502H85.6708C85.5214 16.006 85.2181 16.4073 84.7608 16.706C84.3128 16.9953 83.7901 17.14 83.1928 17.14ZM83.6828 15.796C84.2334 15.796 84.6768 15.6047 85.0128 15.222C85.3488 14.83 85.5168 14.242 85.5168 13.458C85.5168 12.674 85.3488 12.0907 85.0128 11.708C84.6768 11.3253 84.2334 11.134 83.6828 11.134C83.1321 11.134 82.6841 11.3253 82.3388 11.708C82.0028 12.0907 81.8348 12.674 81.8348 13.458C81.8348 14.242 82.0028 14.83 82.3388 15.222C82.6841 15.6047 83.1321 15.796 83.6828 15.796Z" fill="#059669"/>
</svg>
